<svg xmlns="http://www.w3.org/2000/svg" role="img" viewBox="-1 -1 2 2" class="css-ephwv9">
  <g>
    <path d="M 0 0 L 6.123233995736766e-17 -1 A 1 1 0 0 1 0.7071067811865476 -0.7071067811865475 Z" fill="hsl(-331.3014705882353, 62.5%, 60%)" stroke="black" stroke-width="0.02" stroke-linejoin="round" style="transition: all 0.15s ease-out 0s; transform: rotate(-0.042647turn); --darkreader-inline-fill:#ae0047; --darkreader-inline-stroke:#e8e6e3;" data-darkreader-inline-fill="" data-darkreader-inline-stroke=""></path>
    <path d="M 0 0 L 0.7071067811865476 -0.7071067811865475 A 1 1 0 0 1 1 0 Z" fill="hsl(-327.5514705882353, 87.5%, 55%)" stroke="black" stroke-width="0.02" stroke-linejoin="round" style="transition: all 0.15s ease-out 0s; transform: rotate(-0.042647turn); --darkreader-inline-fill:#000000; --darkreader-inline-stroke:#e8e6e3;" data-darkreader-inline-fill="" data-darkreader-inline-stroke=""></path>
    <path d="M 0 0 L 1 0 A 1 1 0 0 1 0.7071067811865476 0.7071067811865475 Z" fill="hsl(-310.6764705882353, 75%, 65%)" stroke="black" stroke-width="0.02" stroke-linejoin="round" style="transition: all 0.15s ease-out 0s; transform: rotate(-0.042647turn); --darkreader-inline-fill:#ba004f; --darkreader-inline-stroke:#e8e6e3;" data-darkreader-inline-fill="" data-darkreader-inline-stroke=""></path>
    <path d="M 0 0 L 0.7071067811865476 0.7071067811865475 A 1 1 0 0 1 6.123233995736766e-17 1 Z" fill="hsl(-320.0514705882353, 62.5%, 55%)" stroke="black" stroke-width="0.02" stroke-linejoin="round" style="transition: all 0.15s ease-out 0s; transform: rotate(-0.042647turn); --darkreader-inline-fill:#aa0037; --darkreader-inline-stroke:#e8e6e3;" data-darkreader-inline-fill="" data-darkreader-inline-stroke=""></path>
    <path d="M 0 0 L 6.123233995736766e-17 1 A 1 1 0 0 1 -0.7071067811865475 0.7071067811865476 Z" fill="hsl(-327.5514705882353, 50%, 60%)" stroke="black" stroke-width="0.02" stroke-linejoin="round" style="transition: all 0.15s ease-out 0s; transform: rotate(-0.042647turn); --darkreader-inline-fill:#a30052; --darkreader-inline-stroke:#e8e6e3;" data-darkreader-inline-fill="" data-darkreader-inline-stroke=""></path>
    <path d="M 0 0 L -0.7071067811865475 0.7071067811865476 A 1 1 0 0 1 -1 1.2246467991473532e-16 Z" fill="hsl(-327.5514705882353, 50%, 55%)" stroke="black" stroke-width="0.02" stroke-linejoin="round" style="transition: all 0.15s ease-out 0s; transform: rotate(-0.042647turn); --darkreader-inline-fill:#9e0042; --darkreader-inline-stroke:#e8e6e3;" data-darkreader-inline-fill="" data-darkreader-inline-stroke=""></path>
    <path d="M 0 0 L -1 1.2246467991473532e-16 A 1 1 0 0 1 -0.7071067811865477 -0.7071067811865475 Z" fill="hsl(-318.1764705882353, 50%, 50%)" stroke="black" stroke-width="0.02" stroke-linejoin="round" style="transition: all 0.15s ease-out 0s; transform: rotate(-0.042647turn); --darkreader-inline-fill:#990033; --darkreader-inline-stroke:#e8e6e3;" data-darkreader-inline-fill="" data-darkreader-inline-stroke=""></path>
    <path d="M 0 0 L -0.7071067811865477 -0.7071067811865475 A 1 1 0 0 1 -1.8369701987210297e-16 -1 Z" fill="hsl(-325.6764705882353, 50%, 60%)" stroke="black" stroke-width="0.02" stroke-linejoin="round" style="transition: all 0.15s ease-out 0s; transform: rotate(-0.042647turn); --darkreader-inline-fill:#a30052; --darkreader-inline-stroke:#e8e6e3;" data-darkreader-inline-fill="" data-darkreader-inline-stroke=""></path>
    <path d="M 0 0 L -1.4672444368403393e-16 -0.7987306695894643 A 0.7987306695894643 0.7987306695894643 0 0 1 0.5647878728083817 -0.564787872808382 Z" fill="hsl(-294.63235294117646, 50%, 50%)" stroke="black" stroke-width="0.02" stroke-linejoin="round" style="transition: all 0.15s ease-out 0s; --darkreader-inline-fill:#990033; --darkreader-inline-stroke:#e8e6e3; transform: rotate(-0.014216turn);" data-darkreader-inline-fill="" data-darkreader-inline-stroke=""></path>
    <path d="M 0 0 L 0.5647878728083817 -0.564787872808382 A 0.7987306695894643 0.7987306695894643 0 0 1 0.7987306695894643 -1.9563259157871192e-16 Z" fill="hsl(-302.13235294117646, 50%, 65%)" stroke="black" stroke-width="0.02" stroke-linejoin="round" style="transition: all 0.15s ease-out 0s; --darkreader-inline-fill:#a81761; --darkreader-inline-stroke:#e8e6e3; transform: rotate(-0.014216turn);" data-darkreader-inline-fill="" data-darkreader-inline-stroke=""></path>
    <path d="M 0 0 L 0.7987306695894643 -1.9563259157871192e-16 A 0.7987306695894643 0.7987306695894643 0 0 1 0.5647878728083826 0.5647878728083813 Z" fill="hsl(-304.00735294117646, 87.5%, 55%)" stroke="black" stroke-width="0.02" stroke-linejoin="round" style="transition: all 0.15s ease-out 0s; --darkreader-inline-fill:#c10020; --darkreader-inline-stroke:#e8e6e3; transform: rotate(-0.014216turn);" data-darkreader-inline-fill="" data-darkreader-inline-stroke=""></path>
    <path d="M 0 0 L 0.5647878728083826 0.5647878728083813 A 0.7987306695894643 0.7987306695894643 0 0 1 2.4454073947338993e-16 0.7987306695894643 Z" fill="hsl(-279.63235294117646, 75%, 65%)" stroke="black" stroke-width="0.02" stroke-linejoin="round" style="transition: all 0.15s ease-out 0s; --darkreader-inline-fill:#ba084f; --darkreader-inline-stroke:#e8e6e3; transform: rotate(-0.014216turn);" data-darkreader-inline-fill="" data-darkreader-inline-stroke=""></path>
    <path d="M 0 0 L 2.4454073947338993e-16 0.7987306695894643 A 0.7987306695894643 0.7987306695894643 0 0 1 -0.5647878728083822 0.5647878728083816 Z" fill="hsl(-290.88235294117646, 87.5%, 50%)" stroke="black" stroke-width="0.02" stroke-linejoin="round" style="transition: all 0.15s ease-out 0s; --darkreader-inline-fill:#bf000d; --darkreader-inline-stroke:#e8e6e3; transform: rotate(-0.014216turn);" data-darkreader-inline-fill="" data-darkreader-inline-stroke=""></path>
    <path d="M 0 0 L -0.5647878728083822 0.5647878728083816 A 0.7987306695894643 0.7987306695894643 0 0 1 -0.7987306695894643 2.9344888736806786e-16 Z" fill="hsl(-292.75735294117646, 50%, 50%)" stroke="black" stroke-width="0.02" stroke-linejoin="round" style="transition: all 0.15s ease-out 0s; --darkreader-inline-fill:#990033; --darkreader-inline-stroke:#e8e6e3; transform: rotate(-0.014216turn);" data-darkreader-inline-fill="" data-darkreader-inline-stroke=""></path>
    <path d="M 0 0 L -0.7987306695894643 2.9344888736806786e-16 A 0.7987306695894643 0.7987306695894643 0 0 1 -0.5647878728083826 -0.5647878728083812 Z" fill="hsl(-300.25735294117646, 50%, 55%)" stroke="black" stroke-width="0.02" stroke-linejoin="round" style="transition: all 0.15s ease-out 0s; --darkreader-inline-fill:#9e0042; --darkreader-inline-stroke:#e8e6e3; transform: rotate(-0.014216turn);" data-darkreader-inline-fill="" data-darkreader-inline-stroke=""></path>
    <path d="M 0 0 L -0.5647878728083826 -0.5647878728083812 A 0.7987306695894643 0.7987306695894643 0 0 1 -3.4235703526274585e-16 -0.7987306695894643 Z" fill="hsl(-305.88235294117646, 75%, 55%)" stroke="black" stroke-width="0.02" stroke-linejoin="round" style="transition: all 0.15s ease-out 0s; --darkreader-inline-fill:#b5002b; --darkreader-inline-stroke:#e8e6e3; transform: rotate(-0.014216turn);" data-darkreader-inline-fill="" data-darkreader-inline-stroke=""></path>
    <path d="M 0 0 L -2.5159719038007387e-16 -0.5869848480983499 A 0.5869848480983499 0.5869848480983499 0 0 1 0.4150609665440989 -0.4150609665440986 Z" fill="hsl(-385.91911764705884, 75%, 50%)" stroke="black" stroke-width="0.02" stroke-linejoin="round" style="transition: all 0.15s ease-out 0s; transform: rotate(-0.107353turn); --darkreader-inline-fill:#b2001a; --darkreader-inline-stroke:#e8e6e3;" data-darkreader-inline-fill="" data-darkreader-inline-stroke=""></path>
    <path d="M 0 0 L 0.4150609665440989 -0.4150609665440986 A 0.5869848480983499 0.5869848480983499 0 0 1 0.5869848480983499 -2.8753964614865583e-16 Z" fill="hsl(-376.54411764705884, 75%, 55%)" stroke="black" stroke-width="0.02" stroke-linejoin="round" style="transition: all 0.15s ease-out 0s; transform: rotate(-0.107353turn); --darkreader-inline-fill:#b5042b; --darkreader-inline-stroke:#e8e6e3;" data-darkreader-inline-fill="" data-darkreader-inline-stroke=""></path>
    <path d="M 0 0 L 0.5869848480983499 -2.8753964614865583e-16 A 0.5869848480983499 0.5869848480983499 0 0 1 0.4150609665440994 0.4150609665440982 Z" fill="hsl(-380.29411764705884, 50%, 55%)" stroke="black" stroke-width="0.02" stroke-linejoin="round" style="transition: all 0.15s ease-out 0s; transform: rotate(-0.107353turn); --darkreader-inline-fill:#9e2442; --darkreader-inline-stroke:#e8e6e3;" data-darkreader-inline-fill="" data-darkreader-inline-stroke=""></path>
    <path d="M 0 0 L 0.4150609665440994 0.4150609665440982 A 0.5869848480983499 0.5869848480983499 0 0 1 3.2348210191723783e-16 0.5869848480983499 Z" fill="hsl(-391.54411764705884, 50%, 55%)" stroke="black" stroke-width="0.02" stroke-linejoin="round" style="transition: all 0.15s ease-out 0s; transform: rotate(-0.107353turn); --darkreader-inline-fill:#9e1242; --darkreader-inline-stroke:#e8e6e3;" data-darkreader-inline-fill="" data-darkreader-inline-stroke=""></path>
    <path d="M 0 0 L 3.2348210191723783e-16 0.5869848480983499 A 0.5869848480983499 0.5869848480983499 0 0 1 -0.41506096654409885 0.4150609665440987 Z" fill="hsl(-384.04411764705884, 75%, 65%)" stroke="black" stroke-width="0.02" stroke-linejoin="round" style="transition: all 0.15s ease-out 0s; transform: rotate(-0.107353turn); --darkreader-inline-fill:#ac123e; --darkreader-inline-stroke:#e8e6e3;" data-darkreader-inline-fill="" data-darkreader-inline-stroke=""></path>
    <path d="M 0 0 L -0.41506096654409885 0.4150609665440987 A 0.5869848480983499 0.5869848480983499 0 0 1 -0.5869848480983499 1.4021191072296408e-15 Z" fill="hsl(-384.04411764705884, 50%, 55%)" stroke="black" stroke-width="0.02" stroke-linejoin="round" style="transition: all 0.15s ease-out 0s; transform: rotate(-0.107353turn); --darkreader-inline-fill:#9e1e42; --darkreader-inline-stroke:#e8e6e3;" data-darkreader-inline-fill="" data-darkreader-inline-stroke=""></path>
    <path d="M 0 0 L -0.5869848480983499 1.4021191072296408e-15 A 0.5869848480983499 0.5869848480983499 0 0 1 -0.4150609665440987 -0.41506096654409885 Z" fill="hsl(-391.54411764705884, 50%, 55%)" stroke="black" stroke-width="0.02" stroke-linejoin="round" style="transition: all 0.15s ease-out 0s; transform: rotate(-0.107353turn); --darkreader-inline-fill:#9e1242; --darkreader-inline-stroke:#e8e6e3;" data-darkreader-inline-fill="" data-darkreader-inline-stroke=""></path>
    <path d="M 0 0 L -0.4150609665440987 -0.41506096654409885 A 0.5869848480983499 0.5869848480983499 0 0 1 -1.4380615629982227e-15 -0.5869848480983499 Z" fill="hsl(-384.04411764705884, 75%, 50%)" stroke="black" stroke-width="0.02" stroke-linejoin="round" style="transition: all 0.15s ease-out 0s; transform: rotate(-0.107353turn); --darkreader-inline-fill:#b2001a; --darkreader-inline-stroke:#e8e6e3;" data-darkreader-inline-fill="" data-darkreader-inline-stroke=""></path>
    <path d="M 0 0 L -8.697189655206095e-16 -0.355 A 0.355 0.355 0 0 1 0.25102290732122484 -0.25102290732122384 Z" fill="hsl(-353, 75%, 50%)" stroke="black" stroke-width="0.02" stroke-linejoin="round" style="transition: all 0.15s ease-out 0s; --darkreader-inline-fill:#000000; --darkreader-inline-stroke:#e8e6e3; transform: rotate(-0.078922turn);" data-darkreader-inline-fill="" data-darkreader-inline-stroke=""></path>
    <path d="M 0 0 L 0.25102290732122484 -0.25102290732122384 A 0.355 0.355 0 0 1 0.355 -2.608497682183862e-16 Z" fill="hsl(-353, 75%, 55%)" stroke="black" stroke-width="0.02" stroke-linejoin="round" style="transition: all 0.15s ease-out 0s; --darkreader-inline-fill:#000000; --darkreader-inline-stroke:#e8e6e3; transform: rotate(-0.078922turn);" data-darkreader-inline-fill="" data-darkreader-inline-stroke=""></path>
    <path d="M 0 0 L 0.355 -2.608497682183862e-16 A 0.355 0.355 0 0 1 0.25102290732122523 0.2510229073212235 Z" fill="hsl(-362.375, 50%, 60%)" stroke="black" stroke-width="0.02" stroke-linejoin="round" style="transition: all 0.15s ease-out 0s; --darkreader-inline-fill:#842b2e; --darkreader-inline-stroke:#e8e6e3; transform: rotate(-0.078922turn);" data-darkreader-inline-fill="" data-darkreader-inline-stroke=""></path>
    <path d="M 0 0 L 0.25102290732122523 0.2510229073212235 A 0.355 0.355 0 0 1 -3.4801942908383715e-16 0.355 Z" fill="hsl(-364.25, 87.5%, 50%)" stroke="black" stroke-width="0.02" stroke-linejoin="round" style="transition: all 0.15s ease-out 0s; --darkreader-inline-fill:#bf010d; --darkreader-inline-stroke:#e8e6e3; transform: rotate(-0.078922turn);" data-darkreader-inline-fill="" data-darkreader-inline-stroke=""></path>
    <path d="M 0 0 L -3.4801942908383715e-16 0.355 A 0.355 0.355 0 0 1 -0.25102290732122395 0.2510229073212248 Z" fill="hsl(-339.875, 62.5%, 50%)" stroke="black" stroke-width="0.02" stroke-linejoin="round" style="transition: all 0.15s ease-out 0s; --darkreader-inline-fill:#000000; --darkreader-inline-stroke:#e8e6e3; transform: rotate(-0.078922turn);" data-darkreader-inline-fill="" data-darkreader-inline-stroke=""></path>
    <path d="M 0 0 L -0.25102290732122395 0.2510229073212248 A 0.355 0.355 0 0 1 -0.355 1.565538085562295e-15 Z" fill="hsl(-341.75, 62.5%, 60%)" stroke="black" stroke-width="0.02" stroke-linejoin="round" style="transition: all 0.15s ease-out 0s; --darkreader-inline-fill:#ae0047; --darkreader-inline-stroke:#e8e6e3; transform: rotate(-0.078922turn);" data-darkreader-inline-fill="" data-darkreader-inline-stroke=""></path>
    <path d="M 0 0 L -0.355 1.565538085562295e-15 A 0.355 0.355 0 0 1 -0.2510229073212244 -0.2510229073212244 Z" fill="hsl(-339.875, 75%, 55%)" stroke="black" stroke-width="0.02" stroke-linejoin="round" style="transition: all 0.15s ease-out 0s; --darkreader-inline-fill:#000000; --darkreader-inline-stroke:#e8e6e3; transform: rotate(-0.078922turn);" data-darkreader-inline-fill="" data-darkreader-inline-stroke=""></path>
    <path d="M 0 0 L -0.2510229073212244 -0.2510229073212244 A 0.355 0.355 0 0 1 -9.566688882600716e-16 -0.355 Z" fill="hsl(-343.625, 75%, 65%)" stroke="black" stroke-width="0.02" stroke-linejoin="round" style="transition: all 0.15s ease-out 0s; --darkreader-inline-fill:#ba004f; --darkreader-inline-stroke:#e8e6e3; transform: rotate(-0.078922turn);" data-darkreader-inline-fill="" data-darkreader-inline-stroke=""></path>
  </g>
</svg>
