<svg xmlns="http://www.w3.org/2000/svg" role="img" viewBox="-1 -1 2 2" class="css-ephwv9">
  <g>
    <path d="M 0 0 L 6.123233995736766e-17 -1 A 0 0 0 0 1 0.7071067811865476 -0.7071067811865475 Z" fill="hsl(139.24264705882354, 50%, 55%)" stroke="black" stroke-width="0.02" stroke-linejoin="round" style="transition: all 0.15s ease-out 0s; transform: rotate(0.0625turn);"></path>
    <path d="M 0 0 L 0.7071067811865476 -0.7071067811865475 A 0 0 0 0 1 1 0 Z" fill="hsl(137.36764705882354, 87.5%, 65%)" stroke="black" stroke-width="0.02" stroke-linejoin="round" style="transition: all 0.15s ease-out 0s; transform: rotate(0.0625turn);"></path>
    <path d="M 0 0 L 1 0 A 0 0 0 0 1 0.7071067811865476 0.7071067811865475 Z" fill="hsl(135.49264705882354, 50%, 65%)" stroke="black" stroke-width="0.02" stroke-linejoin="round" style="transition: all 0.15s ease-out 0s; transform: rotate(0.0625turn);"></path>
    <path d="M 0 0 L 0.7071067811865476 0.7071067811865475 A 0 0 0 0 1 6.123233995736766e-17 1 Z" fill="hsl(126.11764705882352, 87.5%, 50%)" stroke="black" stroke-width="0.02" stroke-linejoin="round" style="transition: all 0.15s ease-out 0s; transform: rotate(0.0625turn);"></path>
    <path d="M 0 0 L 6.123233995736766e-17 1 A 0 0 0 0 1 -0.7071067811865475 0.7071067811865476 Z" fill="hsl(154.24264705882354, 75%, 50%)" stroke="black" stroke-width="0.02" stroke-linejoin="round" style="transition: all 0.15s ease-out 0s; transform: rotate(0.0625turn);"></path>
    <path d="M 0 0 L -0.7071067811865475 0.7071067811865476 A 0 0 0 0 1 -1 1.2246467991473532e-16 Z" fill="hsl(133.61764705882354, 87.5%, 50%)" stroke="black" stroke-width="0.02" stroke-linejoin="round" style="transition: all 0.15s ease-out 0s; transform: rotate(0.0625turn);"></path>
    <path d="M 0 0 L -1 1.2246467991473532e-16 A 0 0 0 0 1 -0.7071067811865477 -0.7071067811865475 Z" fill="hsl(142.99264705882354, 50%, 55%)" stroke="black" stroke-width="0.02" stroke-linejoin="round" style="transition: all 0.15s ease-out 0s; transform: rotate(0.0625turn);"></path>
    <path d="M 0 0 L -0.7071067811865477 -0.7071067811865475 A 0 0 0 0 1 -1.8369701987210297e-16 -1 Z" fill="hsl(127.99264705882352, 50%, 50%)" stroke="black" stroke-width="0.02" stroke-linejoin="round" style="transition: all 0.15s ease-out 0s; transform: rotate(0.0625turn);"></path>
    <path d="M 0 0 L -1.4672444368403393e-16 -0.7987306695894643 A 0 0 0 0 1 0.5647878728083817 -0.564787872808382 Z" fill="hsl(234.31617647058823, 62.5%, 50%)" stroke="black" stroke-width="0.02" stroke-linejoin="round" style="transition: all 0.15s ease-out 0s;"></path>
    <path d="M 0 0 L 0.5647878728083817 -0.564787872808382 A 0 0 0 0 1 0.7987306695894643 -1.9563259157871192e-16 Z" fill="hsl(253.06617647058823, 75%, 60%)" stroke="black" stroke-width="0.02" stroke-linejoin="round" style="transition: all 0.15s ease-out 0s;"></path>
    <path d="M 0 0 L 0.7987306695894643 -1.9563259157871192e-16 A 0 0 0 0 1 0.5647878728083826 0.5647878728083813 Z" fill="hsl(232.44117647058823, 87.5%, 50%)" stroke="black" stroke-width="0.02" stroke-linejoin="round" style="transition: all 0.15s ease-out 0s;"></path>
    <path d="M 0 0 L 0.5647878728083826 0.5647878728083813 A 0 0 0 0 1 2.4454073947338993e-16 0.7987306695894643 Z" fill="hsl(241.81617647058823, 75%, 60%)" stroke="black" stroke-width="0.02" stroke-linejoin="round" style="transition: all 0.15s ease-out 0s;"></path>
    <path d="M 0 0 L 2.4454073947338993e-16 0.7987306695894643 A 0 0 0 0 1 -0.5647878728083822 0.5647878728083816 Z" fill="hsl(228.69117647058823, 75%, 50%)" stroke="black" stroke-width="0.02" stroke-linejoin="round" style="transition: all 0.15s ease-out 0s;"></path>
    <path d="M 0 0 L -0.5647878728083822 0.5647878728083816 A 0 0 0 0 1 -0.7987306695894643 2.9344888736806786e-16 Z" fill="hsl(228.69117647058823, 75%, 50%)" stroke="black" stroke-width="0.02" stroke-linejoin="round" style="transition: all 0.15s ease-out 0s;"></path>
    <path d="M 0 0 L -0.7987306695894643 2.9344888736806786e-16 A 0 0 0 0 1 -0.5647878728083826 -0.5647878728083812 Z" fill="hsl(249.31617647058823, 62.5%, 65%)" stroke="black" stroke-width="0.02" stroke-linejoin="round" style="transition: all 0.15s ease-out 0s;"></path>
    <path d="M 0 0 L -0.5647878728083826 -0.5647878728083812 A 0 0 0 0 1 -3.4235703526274585e-16 -0.7987306695894643 Z" fill="hsl(238.06617647058823, 50%, 60%)" stroke="black" stroke-width="0.02" stroke-linejoin="round" style="transition: all 0.15s ease-out 0s;"></path>
    <path d="M 0 0 L -2.5159719038007387e-16 -0.5869848480983499 A 0 0 0 0 1 0.4150609665440989 -0.4150609665440986 Z" fill="hsl(177.83823529411765, 50%, 65%)" stroke="black" stroke-width="0.02" stroke-linejoin="round" style="transition: all 0.15s ease-out 0s; transform: rotate(0.0625turn);"></path>
    <path d="M 0 0 L 0.4150609665440989 -0.4150609665440986 A 0 0 0 0 1 0.5869848480983499 -2.8753964614865583e-16 Z" fill="hsl(183.46323529411765, 87.5%, 65%)" stroke="black" stroke-width="0.02" stroke-linejoin="round" style="transition: all 0.15s ease-out 0s; transform: rotate(0.0625turn);"></path>
    <path d="M 0 0 L 0.5869848480983499 -2.8753964614865583e-16 A 0 0 0 0 1 0.4150609665440994 0.4150609665440982 Z" fill="hsl(179.71323529411765, 62.5%, 55%)" stroke="black" stroke-width="0.02" stroke-linejoin="round" style="transition: all 0.15s ease-out 0s; transform: rotate(0.0625turn);"></path>
    <path d="M 0 0 L 0.4150609665440994 0.4150609665440982 A 0 0 0 0 1 3.2348210191723783e-16 0.5869848480983499 Z" fill="hsl(187.21323529411765, 50%, 60%)" stroke="black" stroke-width="0.02" stroke-linejoin="round" style="transition: all 0.15s ease-out 0s; transform: rotate(0.0625turn);"></path>
    <path d="M 0 0 L 3.2348210191723783e-16 0.5869848480983499 A 0 0 0 0 1 -0.41506096654409885 0.4150609665440987 Z" fill="hsl(177.83823529411765, 50%, 55%)" stroke="black" stroke-width="0.02" stroke-linejoin="round" style="transition: all 0.15s ease-out 0s; transform: rotate(0.0625turn);"></path>
    <path d="M 0 0 L -0.41506096654409885 0.4150609665440987 A 0 0 0 0 1 -0.5869848480983499 1.4021191072296408e-15 Z" fill="hsl(172.21323529411765, 50%, 50%)" stroke="black" stroke-width="0.02" stroke-linejoin="round" style="transition: all 0.15s ease-out 0s; transform: rotate(0.0625turn);"></path>
    <path d="M 0 0 L -0.5869848480983499 1.4021191072296408e-15 A 0 0 0 0 1 -0.4150609665440987 -0.41506096654409885 Z" fill="hsl(166.58823529411765, 75%, 60%)" stroke="black" stroke-width="0.02" stroke-linejoin="round" style="transition: all 0.15s ease-out 0s; transform: rotate(0.0625turn);"></path>
    <path d="M 0 0 L -0.4150609665440987 -0.41506096654409885 A 0 0 0 0 1 -1.4380615629982227e-15 -0.5869848480983499 Z" fill="hsl(194.71323529411765, 87.5%, 65%)" stroke="black" stroke-width="0.02" stroke-linejoin="round" style="transition: all 0.15s ease-out 0s; transform: rotate(0.0625turn);"></path>
    <path d="M 0 0 L -8.697189655206095e-16 -0.355 A 0 0 0 0 1 0.25102290732122484 -0.25102290732122384 Z" fill="hsl(171.18382352941177, 75%, 65%)" stroke="black" stroke-width="0.02" stroke-linejoin="round" style="transition: all 0.15s ease-out 0s;"></path>
    <path d="M 0 0 L 0.25102290732122484 -0.25102290732122384 A 0 0 0 0 1 0.355 -2.608497682183862e-16 Z" fill="hsl(159.93382352941177, 87.5%, 55%)" stroke="black" stroke-width="0.02" stroke-linejoin="round" style="transition: all 0.15s ease-out 0s;"></path>
    <path d="M 0 0 L 0.355 -2.608497682183862e-16 A 0 0 0 0 1 0.25102290732122523 0.2510229073212235 Z" fill="hsl(144.93382352941177, 87.5%, 60%)" stroke="black" stroke-width="0.02" stroke-linejoin="round" style="transition: all 0.15s ease-out 0s;"></path>
    <path d="M 0 0 L 0.25102290732122523 0.2510229073212235 A 0 0 0 0 1 -3.4801942908383715e-16 0.355 Z" fill="hsl(154.30882352941177, 62.5%, 55%)" stroke="black" stroke-width="0.02" stroke-linejoin="round" style="transition: all 0.15s ease-out 0s;"></path>
    <path d="M 0 0 L -3.4801942908383715e-16 0.355 A 0 0 0 0 1 -0.25102290732122395 0.2510229073212248 Z" fill="hsl(154.30882352941177, 50%, 55%)" stroke="black" stroke-width="0.02" stroke-linejoin="round" style="transition: all 0.15s ease-out 0s;"></path>
    <path d="M 0 0 L -0.25102290732122395 0.2510229073212248 A 0 0 0 0 1 -0.355 1.565538085562295e-15 Z" fill="hsl(171.18382352941177, 75%, 55%)" stroke="black" stroke-width="0.02" stroke-linejoin="round" style="transition: all 0.15s ease-out 0s;"></path>
    <path d="M 0 0 L -0.355 1.565538085562295e-15 A 0 0 0 0 1 -0.2510229073212244 -0.2510229073212244 Z" fill="hsl(161.80882352941177, 50%, 65%)" stroke="black" stroke-width="0.02" stroke-linejoin="round" style="transition: all 0.15s ease-out 0s;"></path>
    <path d="M 0 0 L -0.2510229073212244 -0.2510229073212244 A 0 0 0 0 1 -9.566688882600716e-16 -0.355 Z" fill="hsl(161.80882352941177, 50%, 50%)" stroke="black" stroke-width="0.02" stroke-linejoin="round" style="transition: all 0.15s ease-out 0s;"></path>
  </g>
</svg>
